<svg width="512" height="512" viewBox="0 0 512 512" fill="none" xmlns="http://www.w3.org/2000/svg"><path d="M162.95 279.342C255.891 456.791 340.877 483.364 371.753 474.469C408 462.967 420.421 368.4 357.624 250.99C279.126 104.228 216.916 30.2375 155.688 28.5697C133.044 28.5697 46.7746 57.5308 162.95 279.342Z" stroke="#336C9C" stroke-width="18"/><path d="M186.271 181.271C91.4138 357.516 112.743 450.833 135.265 475.461C162.549 503.843 244.077 468.257 306.188 350.416C383.827 203.115 411.651 107.537 382.365 49.0453C371.044 27.7223 304.843 -39.0364 186.271 181.271Z" stroke="#336C9C" stroke-width="18"/><path d="M282.602 161.661C94.8041 160.458 31.1472 227.202 22.7935 260.725C13.831 300.609 82.9372 359.589 207.846 359.158C363.982 358.62 454.017 337.032 485.959 280.208C497.281 258.885 517.35 163.165 282.602 161.661Z" stroke="#336C9C" stroke-width="18"/><ellipse cx="82.4866" cy="198.732" rx="21.026" ry="22.863" fill="#00D8FF"/><ellipse cx="431.842" cy="328.875" rx="21.026" ry="22.863" fill="#00D8FF"/><ellipse cx="255.788" cy="255.891" rx="45.5284" ry="48.3648" fill="#FFD94A"/></svg>